<?xml version="1.0" encoding="UTF-8"?>
<svg xmlns="http://www.w3.org/2000/svg" xmlns:xlink="http://www.w3.org/1999/xlink" width="40px" height="27px" viewBox="0 0 39 27" version="1.1" >
<g id="surface1">
<path style=" stroke:none;fill-rule:nonzero;fill-opacity:1;" d="M 25.984375 2.121094 L 3.597656 2.121094 C 3.1875 2.121094 2.816406 2.292969 2.546875 2.566406 C 2.277344 2.839844 2.109375 3.214844 2.109375 3.625 L 2.109375 23.371094 C 2.109375 23.785156 2.277344 24.160156 2.546875 24.433594 C 2.816406 24.707031 3.1875 24.878906 3.597656 24.878906 L 26.085938 24.878906 C 28.355469 24.691406 30.800781 21.148438 33.171875 17.707031 C 34.179688 16.246094 35.175781 14.800781 36.1875 13.578125 C 34.957031 12.105469 33.792969 10.449219 32.664062 8.84375 C 30.207031 5.347656 27.9375 2.121094 25.984375 2.121094 Z M 12.359375 7.726562 C 11.652344 7.003906 10.503906 7 9.796875 7.71875 C 9.085938 8.4375 9.085938 9.609375 9.789062 10.332031 L 12.882812 13.5 L 9.785156 16.675781 C 9.085938 17.390625 9.097656 18.554688 9.808594 19.269531 C 10.519531 19.988281 11.660156 19.984375 12.359375 19.265625 L 15.4375 16.117188 L 18.519531 19.273438 C 19.226562 19.996094 20.371094 20 21.082031 19.28125 C 21.789062 18.5625 21.792969 17.390625 21.089844 16.667969 L 17.992188 13.5 L 21.089844 10.324219 C 21.792969 9.609375 21.78125 8.445312 21.070312 7.730469 C 20.359375 7.011719 19.214844 7.015625 18.515625 7.734375 L 15.441406 10.882812 Z M 3.597656 0 L 25.984375 0 C 29.015625 0 31.585938 3.65625 34.371094 7.617188 C 35.644531 9.425781 36.964844 11.304688 38.355469 12.871094 L 38.992188 13.585938 L 38.347656 14.296875 C 37.230469 15.527344 36.070312 17.210938 34.894531 18.917969 C 32.21875 22.800781 29.457031 26.800781 26.144531 26.996094 L 3.597656 27 C 2.609375 27 1.710938 26.589844 1.0625 25.933594 C 0.410156 25.277344 0.0078125 24.371094 0.0078125 23.371094 L 0.0078125 3.625 C 0.0078125 2.628906 0.410156 1.722656 1.0625 1.066406 C 1.710938 0.410156 2.609375 0 3.597656 0 Z M 3.597656 0 "/>
</g>
</svg>
